<svg xmlns="http://www.w3.org/2000/svg" width="294.66883" height="62.41079" viewBox="0 0 294.66883 62.41079"><path d="M59.45,6.91079c-5.4-5.4-10-5.4-15.4,0l-32.3,32.3,4.6,4.6c5.4,5.4,10,5.4,15.4,0l32.4-32.4Z" fill="#00b481"/><path d="M67.25,14.61079l-17.8,17.7c-4.2,4.2-4.2,9.7-.8,13.1s8.9,3.5,13.1-.8l10-10c5.4-5.4,5.4-10.1,0-15.5Z" fill="#00b481"/><path d="M27.15,5.31079c-3.4-3.4-8.9-3.5-13.1.8l-10,10c-5.4,5.4-5.4,10.1,0,15.5l4.6,4.6,17.7-17.8C30.65,14.21079,30.55,8.71079,27.15,5.31079Z" fill="#00b481"/><path d="M155.05,14.51078h-10.8l-12,11.9v-25.6h-8.8v47.9h8.8v-11.9l4.1-4,10.1,15.9h9.9l-14-21.8Z" fill="#fff"/><path d="M188.95,14.51078h-8.8v18.2a10.289,10.289,0,0,1-2.3,6.9,7.44288,7.44288,0,0,1-5.9,2.8,4.86634,4.86634,0,0,1-4.4-2.1c-1-1.4-1.4-3.5-1.4-6.4v-19.4h-8.8v19.3c0,5.1,1,9,3,11.6s5,4,8.9,4a13.93587,13.93587,0,0,0,6.9-1.8,10.30229,10.30229,0,0,0,4.3-4.9h.1q.15,3,.6,6h8.3a84.573,84.573,0,0,1-.5-8.7Z" fill="#fff"/><path d="M213.35,13.81079a12.99923,12.99923,0,0,0-6.1,1.4,11.59549,11.59549,0,0,0-4.4,3.8h-.1c0-1.6-.1-3.1-.2-4.5h-8.2c.2,2.4.3,5.4.3,9.1v38.8h8.8v-17.2h.2a7.74483,7.74483,0,0,0,3.8,3.1,14.2645,14.2645,0,0,0,5.8,1.1,12.72081,12.72081,0,0,0,10.5-4.7c2.5-3.1,3.8-7.5,3.8-13s-1.3-9.9-3.8-13.1a13.17784,13.17784,0,0,0-10.4-4.8Zm3.3,26.1a6.27334,6.27334,0,0,1-5.5,3,7.38267,7.38267,0,0,1-5.6-2.2,7.47236,7.47236,0,0,1-2.3-5.5v-7a7.02785,7.02785,0,0,1,2.2-5.5,8.32049,8.32049,0,0,1,5.8-2.1c4.9,0,7.3,3.6,7.3,10.9C218.55,35.11079,217.95,37.91079,216.65,39.91079Z" fill="#fff"/><path d="M248.55,13.51078c-5.5,0-9.8,1.6-12.9,4.7s-4.7,7.5-4.7,13.1,1.6,9.9,4.7,13.1c3.1,3.1,7.4,4.7,12.9,4.7s9.8-1.6,13-4.7c3.1-3.1,4.7-7.5,4.7-13.1s-1.6-9.9-4.7-13.1C258.35,15.11079,254.05,13.51079,248.55,13.51078Zm6.5,26a7.96955,7.96955,0,0,1-6.6,3,7.78126,7.78126,0,0,1-6.5-3c-1.6-2-2.4-4.8-2.4-8.3s.8-6.3,2.4-8.3a7.90794,7.90794,0,0,1,6.5-3,8.09821,8.09821,0,0,1,6.6,3c1.6,2,2.4,4.8,2.4,8.3C257.45,34.81079,256.65,37.51078,255.05,39.51078Z" fill="#fff"/><path d="M114.95,25.11079a33.97728,33.97728,0,0,0-6.9-4.1c-1.1-.5-2.1-1-3.1-1.5-1.5-.8-2.8-1.4-3.7-2a10.34158,10.34158,0,0,1-3.1-2.4,3.84049,3.84049,0,0,1-.9-2.5,4.01332,4.01332,0,0,1,1.7-3.5,8.33125,8.33125,0,0,1,4.9-1.2,10.6589,10.6589,0,0,1,8.4,4.2l5.6-5.6a12.93837,12.93837,0,0,0-5.3-4.5,20.90479,20.90479,0,0,0-9.2-2,19.51429,19.51429,0,0,0-8.3,1.6,12.84533,12.84533,0,0,0-5.6,4.4,12.15806,12.15806,0,0,0-2,6.6,12.60483,12.60483,0,0,0,1.4,6,16.49752,16.49752,0,0,0,4.3,4.8,46.645,46.645,0,0,0,4.7,3c1,.6,2.1,1.1,3.3,1.7a60.23231,60.23231,0,0,1,5.6,3,8.04059,8.04059,0,0,1,2.3,2.2,5.4568,5.4568,0,0,1,.6,2.8,4.73612,4.73612,0,0,1-1.9,3.8,8.391,8.391,0,0,1-5.1,1.4,13.85622,13.85622,0,0,1-6-1.7,19.41278,19.41278,0,0,1-5.5-4.4l-5.7,5.5a17.96011,17.96011,0,0,0,7.1,6.3,21.85114,21.85114,0,0,0,9.7,2.2,21.51862,21.51862,0,0,0,9-1.7,12.63857,12.63857,0,0,0,5.9-4.8,13.15082,13.15082,0,0,0,2.1-7.2,15.22547,15.22547,0,0,0-1.1-6,8.38763,8.38763,0,0,0-3.2-4.4Z" fill="#fff"/><path d="M293.75,34.11078a9.49084,9.49084,0,0,0-3.1-3.2,32.29847,32.29847,0,0,0-5.9-2.9c-.1-.1-.3-.1-.4-.2-.1,0-.2-.1-.3-.1a4.87492,4.87492,0,0,0-.7-.3,1.42132,1.42132,0,0,0-.6-.2,1.68971,1.68971,0,0,0-.5-.2h-.1c-.2-.1-.3-.1-.5-.2h-.1c-.1-.1-.3-.1-.4-.2-.1,0-.1,0-.2-.1-.1,0-.2-.1-.3-.1s-.1-.1-.2-.1-.1-.1-.2-.1c-.1-.1-.2-.1-.4-.2a4.62832,4.62832,0,0,1-1.8-1.3,3.022,3.022,0,0,1-.5-1.6,2.60882,2.60882,0,0,1,1.1-2.1,6.00109,6.00109,0,0,1,3.2-.7,8.11091,8.11091,0,0,1,6.5,2.9l4.5-4.5a12.42591,12.42591,0,0,0-4.4-3.5,16.49068,16.49068,0,0,0-6.9-1.5,15.20591,15.20591,0,0,0-9.2,2.6,8.498,8.498,0,0,0-1.8,11.9,8.1189,8.1189,0,0,0,.9,1,2.65132,2.65132,0,0,0,.6.5c.1.1.2.1.3.2s.3.2.4.3a1.38068,1.38068,0,0,0,.4.3c.1.1.3.2.4.3s.3.2.4.3a.75809.75809,0,0,0,.4.2,2.18567,2.18567,0,0,1,.5.3c.1.1.3.1.4.2l.6.3c.1.1.3.1.4.2a4.87492,4.87492,0,0,0,.7.3c.1.1.3.1.4.2.2.1.5.2.7.3.1,0,.1.1.2.1.2.1.5.2.7.3.4.2.8.3,1.2.5a22.256,22.256,0,0,1,4.7,2.2,2.8446,2.8446,0,0,1,1.1,2.3,3.83831,3.83831,0,0,1-1.5,3,5.93419,5.93419,0,0,1-3.8,1.2,8.68248,8.68248,0,0,1-3.9-1,10.08755,10.08755,0,0,1-3.1-2.7l-4.8,4.8a10.75481,10.75481,0,0,0,4.2,3.7,18.44729,18.44729,0,0,0,15,.4,11.09758,11.09758,0,0,0,4.9-3.9,9.20846,9.20846,0,0,0,1.7-5.8,7.65627,7.65627,0,0,0-.9-4.1Z" fill="#fff"/></svg>
