<svg width="18" height="19" viewBox="0 0 18 19" fill="none" xmlns="http://www.w3.org/2000/svg">
<path d="M16.7032 0.777588H1.26741C0.735139 0.777588 0.335938 1.17542 0.335938 1.70587V17.0224C0.335938 17.6192 0.735139 18.017 1.26741 18.017H9.5841V11.3202H7.32196V8.73425H9.5841V6.81139C9.5841 4.557 10.9813 3.3635 12.9108 3.3635C13.8422 3.3635 14.7072 3.42981 14.9068 3.49611V5.81681H13.5096C12.445 5.81681 12.2454 6.34725 12.2454 7.07661V8.73425H14.8402L14.5076 11.3202H12.2454V18.017H16.6367C17.1689 18.017 17.5681 17.6192 17.5681 17.0887V1.70587C17.6347 1.17542 17.2355 0.777588 16.7032 0.777588Z" fill="white"/>
</svg>
