<svg width="18" height="18" viewBox="0 0 18 18" fill="none" xmlns="http://www.w3.org/2000/svg">
<g clip-path="url(#clip0)">
<path d="M16.3883 0.0158691H0.805013C0.380013 0.0158691 0.0966797 0.299202 0.0966797 0.724202V16.3075C0.0966797 16.7325 0.380013 17.0159 0.805013 17.0159H16.3883C16.8133 17.0159 17.0967 16.7325 17.0967 16.3075V0.724202C17.0967 0.299202 16.8133 0.0158691 16.3883 0.0158691ZM5.12585 14.5367H2.64668V6.39087H5.19668V14.5367H5.12585ZM3.85085 5.25754C3.07168 5.25754 2.36335 4.62004 2.36335 3.77004C2.36335 2.99087 3.00085 2.28254 3.85085 2.28254C4.63001 2.28254 5.33835 2.92004 5.33835 3.77004C5.33835 4.62004 4.70085 5.25754 3.85085 5.25754ZM14.6175 14.5367H12.0675V10.57C12.0675 9.6492 12.0675 8.44503 10.7925 8.44503C9.44668 8.44503 9.30501 9.4367 9.30501 10.4992V14.5367H6.75501V6.39087H9.16335V7.5242C9.51751 6.8867 10.2967 6.2492 11.5717 6.2492C14.1217 6.2492 14.6175 7.9492 14.6175 10.145V14.5367Z" fill="white"/>
</g>
<defs>
<clipPath id="clip0">
<rect width="17" height="17" fill="white" transform="translate(0.0966797 0.0158691)"/>
</clipPath>
</defs>
</svg>
