<svg width="18" height="19" viewBox="0 0 18 19" fill="none" xmlns="http://www.w3.org/2000/svg">
<path d="M6.13204 16.217C12.6051 16.217 16.1719 10.8669 16.1719 6.24325C16.1719 6.11115 16.1719 5.91299 16.1719 5.78089C16.8324 5.25248 17.4268 4.65802 17.9553 3.93145C17.2947 4.19566 16.6342 4.39381 15.9077 4.45986C16.6342 3.9975 17.1626 3.33699 17.4268 2.47832C16.7663 2.87463 15.9737 3.20488 15.1811 3.33699C14.5206 2.67647 13.5959 2.21411 12.6051 2.21411C10.6896 2.21411 9.10436 3.79935 9.10436 5.71484C9.10436 5.97905 9.10436 6.24325 9.17041 6.50746C6.26414 6.44141 3.62209 5.05433 1.90475 2.94068C1.64054 3.46909 1.44239 4.06355 1.44239 4.72407C1.44239 5.97905 2.03685 7.03587 3.02762 7.63033C2.43316 7.63033 1.90475 7.43218 1.37634 7.16797C1.37634 7.16797 1.37634 7.16797 1.37634 7.23402C1.37634 8.95136 2.56526 10.3384 4.21655 10.6687C3.95234 10.7348 3.62209 10.8008 3.29183 10.8008C3.09367 10.8008 2.82947 10.8008 2.63131 10.7348C3.09367 12.1218 4.34865 13.1787 5.93389 13.1787C4.74496 14.1034 3.22578 14.6978 1.57449 14.6978C1.31028 14.6978 0.980026 14.6978 0.71582 14.6318C2.30106 15.6226 4.1505 16.217 6.13204 16.217Z" fill="white"/>
</svg>
